<svg width="20" height="20" viewBox="0 0 20 20" fill="none" xmlns="http://www.w3.org/2000/svg">
<path d="M10 0.0366211C4.4772 0.0366211 0 4.51382 0 10.0366C0 14.7262 3.2288 18.6614 7.5844 19.7422V13.0926H5.5224V10.0366H7.5844V8.71982C7.5844 5.31622 9.1248 3.73862 12.4664 3.73862C13.1 3.73862 14.1932 3.86302 14.6404 3.98702V6.75702C14.4044 6.73222 13.9944 6.71982 13.4852 6.71982C11.8456 6.71982 11.212 7.34102 11.212 8.95582V10.0366H14.4784L13.9172 13.0926H11.212V19.9634C16.1636 19.3654 20.0004 15.1494 20.0004 10.0366C20 4.51382 15.5228 0.0366211 10 0.0366211Z" fill="#012641"/>
</svg>
