<svg width="24" height="19" viewBox="0 0 24 19" fill="none" xmlns="http://www.w3.org/2000/svg">
<path d="M24 2.2291C23.1166 2.61919 22.1644 2.87554 21.1778 2.99814C22.1874 2.40743 22.9675 1.47121 23.3346 0.345511C22.3824 0.902786 21.327 1.29288 20.2141 1.51579C19.3078 0.557276 18.0344 0 16.5889 0C13.8929 0 11.6902 2.13994 11.6902 4.78142C11.6902 5.16037 11.7361 5.52817 11.8164 5.87368C7.73231 5.67307 4.0956 3.76718 1.67495 0.880495C1.25048 1.58266 1.00956 2.40743 1.00956 3.27678C1.00956 4.93746 1.86998 6.40867 3.20077 7.24458C2.38623 7.24458 1.62906 7.02167 0.963671 6.68731V6.72074C0.963671 9.03901 2.66157 10.9783 4.91013 11.413C4.18822 11.6049 3.43032 11.6316 2.69599 11.491C3.00758 12.4412 3.61782 13.2725 4.44094 13.8683C5.26405 14.464 6.25864 14.7942 7.2849 14.8124C5.54527 16.1503 3.38891 16.8735 1.17017 16.8632C0.780115 16.8632 0.390057 16.8409 0 16.7963C2.17973 18.156 4.77247 18.9474 7.54876 18.9474C16.5889 18.9474 21.5564 11.6582 21.5564 5.3387C21.5564 5.12694 21.5564 4.92632 21.5449 4.71455C22.5086 4.04582 23.3346 3.19876 24 2.2291Z" fill="#BBBFC2"/>
</svg>
