<svg width="24" height="20" viewBox="0 0 24 20" fill="none" xmlns="http://www.w3.org/2000/svg">
<path d="M24 2.75541C23.1166 3.1455 22.1644 3.40185 21.1778 3.52445C22.1874 2.93374 22.9675 1.99751 23.3346 0.871817C22.3824 1.42909 21.327 1.81919 20.2141 2.0421C19.3078 1.08358 18.0344 0.526306 16.5889 0.526306C13.8929 0.526306 11.6902 2.66624 11.6902 5.30773C11.6902 5.68668 11.7361 6.05448 11.8164 6.39999C7.73231 6.19937 4.0956 4.29349 1.67495 1.4068C1.25048 2.10897 1.00956 2.93374 1.00956 3.80309C1.00956 5.46377 1.86998 6.93497 3.20077 7.77089C2.38623 7.77089 1.62906 7.54798 0.963671 7.21361V7.24705C0.963671 9.56532 2.66157 11.5046 4.91013 11.9393C4.18822 12.1312 3.43032 12.158 2.69599 12.0173C3.00758 12.9675 3.61782 13.7988 4.44094 14.3946C5.26405 14.9903 6.25864 15.3205 7.2849 15.3387C5.54527 16.6766 3.38891 17.3998 1.17017 17.3895C0.780115 17.3895 0.390057 17.3672 0 17.3226C2.17973 18.6823 4.77247 19.4737 7.54876 19.4737C16.5889 19.4737 21.5564 12.1845 21.5564 5.86501C21.5564 5.65324 21.5564 5.45262 21.5449 5.24086C22.5086 4.57213 23.3346 3.72507 24 2.75541Z" fill="#012641"/>
</svg>
