<svg width="24" height="24" viewBox="0 0 24 24" fill="none" xmlns="http://www.w3.org/2000/svg">
<g clip-path="url(#clip0_1314_2716)">
<path d="M17 19.0005C17 21.7605 14.76 24.0005 12 24.0005H5C2.24 24.0005 0 21.7605 0 19.0005V12.0005C0 9.2405 2.24 7.0005 5 7.0005H6C6.55 7.0005 7 7.4505 7 8.0005C7 8.5505 6.55 9.0005 6 9.0005H5C3.35 9.0005 2 10.3505 2 12.0005V19.0005C2 20.6505 3.35 22.0005 5 22.0005H12C13.65 22.0005 15 20.6505 15 19.0005C15 18.4505 15.45 18.0005 16 18.0005C16.55 18.0005 17 18.4505 17 19.0005ZM23.13 5.8905L17.72 0.300497C17.34 -0.0995026 16.7 -0.109503 16.31 0.280497C15.92 0.670497 15.9 1.3005 16.29 1.6905L21.43 6.9905H13C10.24 6.9905 8 9.2305 8 11.9905V16.9905C8 17.5405 8.45 17.9905 9 17.9905C9.55 17.9905 10 17.5405 10 16.9905V11.9905C10 10.3405 11.35 8.9905 13 8.9905H21.42L16.28 14.2905C15.9 14.6905 15.9 15.3205 16.3 15.7005C16.49 15.8905 16.75 15.9805 17 15.9805C17.25 15.9805 17.52 15.8805 17.72 15.6805L23.12 10.1105C24.29 8.9405 24.29 7.0405 23.13 5.8805V5.8905Z" fill="white"/>
</g>
<defs>
<clipPath id="clip0_1314_2716">
<rect width="24" height="24" fill="white"/>
</clipPath>
</defs>
</svg>
