<svg width="24" height="24" viewBox="0 0 24 24" fill="none" xmlns="http://www.w3.org/2000/svg">
<g clip-path="url(#clip0_1314_2683)">
<path d="M4.5 2.5C4.5 1.119 5.619 0 7 0C8.381 0 9.5 1.119 9.5 2.5C9.5 3.881 8.381 5 7 5C5.619 5 4.5 3.881 4.5 2.5ZM23.225 12.475L16.725 13.975C16.725 13.975 16.718 13.975 16.714 13.976C15.475 14.85 13.964 15.68 12.264 16.37C11.847 16.539 11.424 16.694 11 16.84V23C11 23.552 10.552 24 10 24C9.448 24 9 23.552 9 23V17.439C7.613 17.789 6.263 17.993 5.08 17.993C3.216 17.993 1.763 17.5 1.211 16.329C0.437 14.685 1.804 12.58 4.878 10.609C2.32 7.626 0 3.923 0 1C0 0.448 0.448 0 1 0C1.552 0 2 0.448 2 1C2 2.289 2.712 4.07 3.925 6H9.659C11.191 4.854 11.999 2.662 11.999 1C11.999 0.448 12.447 0 12.999 0C13.551 0 13.999 0.448 13.999 1C13.999 3.007 13.092 5.726 11.143 7.37C11.191 7.511 11.249 7.671 11.323 7.853C12.232 7.58 13.335 7.247 14.871 7.049C18.181 6.768 19.368 7.775 19.788 8.666C19.982 9.079 20.141 9.759 19.791 10.653C19.71 10.861 19.591 11.074 19.46 11.289L22.773 10.524C23.308 10.402 23.848 10.735 23.973 11.274C24.097 11.813 23.762 12.349 23.223 12.474L23.225 12.475ZM5.324 8C6.215 9.161 7.253 10.332 8.395 11.446C8.855 11.896 9.513 12.034 10.114 11.808C10.428 11.688 10.758 11.525 11.092 11.323C10.059 10.042 9.514 8.786 9.247 8H5.324ZM17.98 9.52C17.853 9.25 16.953 8.878 15.084 9.039C13.921 9.19 13.085 9.418 12.307 9.649C12.409 9.796 12.509 9.942 12.626 10.091C12.988 10.55 13.136 11.143 13.032 11.716C12.932 12.267 12.602 12.748 12.127 13.036C11.69 13.3 11.251 13.517 10.823 13.68C10.408 13.837 9.974 13.913 9.544 13.914C8.609 13.914 7.688 13.554 6.998 12.88C6.751 12.639 6.5 12.383 6.248 12.121C3.665 13.714 2.843 15.101 3.021 15.478C3.315 16.103 6.56 16.529 11.513 14.518C15.122 13.053 17.474 11.1 17.931 9.928C17.972 9.823 18.033 9.631 17.981 9.521L17.98 9.52Z" fill="white"/>
</g>
<defs>
<clipPath id="clip0_1314_2683">
<rect width="24" height="24" fill="white"/>
</clipPath>
</defs>
</svg>
