<svg width="170" height="24" viewBox="0 0 170 24" fill="none" xmlns="http://www.w3.org/2000/svg">
<path d="M7.96816 10.8801L0.608156 0.000143051H6.43216L10.9122 7.29614L15.5522 0.000143051H21.0562L13.7282 10.9121L21.6962 22.8481H15.7122L10.7202 14.9441L5.63216 22.8481H0.000156239L7.96816 10.8801ZM21.4399 11.3921C21.5039 10.3255 21.7706 9.44014 22.2399 8.73614C22.7092 8.03214 23.3066 7.46681 24.0319 7.04014C24.7572 6.61348 25.5679 6.31481 26.4639 6.14414C27.3812 5.95214 28.2986 5.85614 29.2159 5.85614C30.0479 5.85614 30.8906 5.92014 31.7439 6.04814C32.5972 6.15481 33.3759 6.37881 34.0799 6.72014C34.7839 7.06148 35.3599 7.54148 35.8079 8.16014C36.2559 8.75748 36.4799 9.55748 36.4799 10.5601V19.1681C36.4799 19.9148 36.5226 20.6295 36.6079 21.3121C36.6932 21.9948 36.8426 22.5068 37.0559 22.8481H32.4479C32.3626 22.5921 32.2879 22.3361 32.2239 22.0801C32.1812 21.8028 32.1492 21.5255 32.1279 21.2481C31.4026 21.9948 30.5492 22.5175 29.5679 22.8161C28.5866 23.1148 27.5839 23.2641 26.5599 23.2641C25.7706 23.2641 25.0346 23.1681 24.3519 22.9761C23.6692 22.7841 23.0719 22.4855 22.5599 22.0801C22.0479 21.6748 21.6426 21.1628 21.3439 20.5441C21.0666 19.9255 20.9279 19.1895 20.9279 18.3361C20.9279 17.3975 21.0879 16.6295 21.4079 16.0321C21.7492 15.4135 22.1759 14.9228 22.6879 14.5601C23.2212 14.1975 23.8186 13.9308 24.4799 13.7601C25.1626 13.5681 25.8452 13.4188 26.5279 13.3121C27.2106 13.2055 27.8826 13.1201 28.5439 13.0561C29.2052 12.9921 29.7919 12.8961 30.3039 12.7681C30.8159 12.6401 31.2212 12.4588 31.5199 12.2241C31.8186 11.9681 31.9572 11.6055 31.9359 11.1361C31.9359 10.6455 31.8506 10.2615 31.6799 9.98414C31.5306 9.68548 31.3172 9.46148 31.0399 9.31214C30.7839 9.14148 30.4746 9.03481 30.1119 8.99214C29.7706 8.92814 29.3972 8.89614 28.9919 8.89614C28.0959 8.89614 27.3919 9.08814 26.8799 9.47214C26.3679 9.85614 26.0692 10.4961 25.9839 11.3921H21.4399ZM31.9359 14.7521C31.7439 14.9228 31.4986 15.0615 31.1999 15.1681C30.9226 15.2535 30.6132 15.3281 30.2719 15.3921C29.9519 15.4561 29.6106 15.5095 29.2479 15.5521C28.8852 15.5948 28.5226 15.6481 28.1599 15.7121C27.8186 15.7761 27.4772 15.8615 27.1359 15.9681C26.8159 16.0748 26.5279 16.2241 26.2719 16.4161C26.0372 16.5868 25.8452 16.8108 25.6959 17.0881C25.5466 17.3655 25.4719 17.7175 25.4719 18.1441C25.4719 18.5495 25.5466 18.8908 25.6959 19.1681C25.8452 19.4455 26.0479 19.6695 26.3039 19.8401C26.5599 19.9895 26.8586 20.0961 27.1999 20.1601C27.5412 20.2241 27.8932 20.2561 28.2559 20.2561C29.1519 20.2561 29.8452 20.1068 30.3359 19.8081C30.8266 19.5095 31.1892 19.1575 31.4239 18.7521C31.6586 18.3255 31.7972 17.8988 31.8399 17.4721C31.9039 17.0455 31.9359 16.7041 31.9359 16.4481V14.7521ZM43.0789 3.74414H38.5349V0.000143051H43.0789V3.74414ZM38.5349 6.30414H43.0789V22.8481H38.5349V6.30414ZM49.0889 14.5921C49.0889 15.2535 49.1529 15.9041 49.2809 16.5441C49.4089 17.1628 49.6222 17.7281 49.9209 18.2401C50.2409 18.7308 50.6569 19.1255 51.1689 19.4241C51.6809 19.7228 52.3209 19.8721 53.0889 19.8721C53.8569 19.8721 54.4969 19.7228 55.0089 19.4241C55.5422 19.1255 55.9582 18.7308 56.2569 18.2401C56.5769 17.7281 56.8009 17.1628 56.9289 16.5441C57.0569 15.9041 57.1209 15.2535 57.1209 14.5921C57.1209 13.9308 57.0569 13.2801 56.9289 12.6401C56.8009 12.0001 56.5769 11.4348 56.2569 10.9441C55.9582 10.4535 55.5422 10.0588 55.0089 9.76014C54.4969 9.44014 53.8569 9.28014 53.0889 9.28014C52.3209 9.28014 51.6809 9.44014 51.1689 9.76014C50.6569 10.0588 50.2409 10.4535 49.9209 10.9441C49.6222 11.4348 49.4089 12.0001 49.2809 12.6401C49.1529 13.2801 49.0889 13.9308 49.0889 14.5921ZM44.5449 14.5921C44.5449 13.2695 44.7476 12.0748 45.1529 11.0081C45.5582 9.92014 46.1342 9.00281 46.8809 8.25614C47.6276 7.48814 48.5236 6.90148 49.5689 6.49614C50.6142 6.06948 51.7876 5.85614 53.0889 5.85614C54.3902 5.85614 55.5636 6.06948 56.6089 6.49614C57.6756 6.90148 58.5822 7.48814 59.3289 8.25614C60.0756 9.00281 60.6516 9.92014 61.0569 11.0081C61.4622 12.0748 61.6649 13.2695 61.6649 14.5921C61.6649 15.9148 61.4622 17.1095 61.0569 18.1761C60.6516 19.2428 60.0756 20.1601 59.3289 20.9281C58.5822 21.6748 57.6756 22.2508 56.6089 22.6561C55.5636 23.0615 54.3902 23.2641 53.0889 23.2641C51.7876 23.2641 50.6142 23.0615 49.5689 22.6561C48.5236 22.2508 47.6276 21.6748 46.8809 20.9281C46.1342 20.1601 45.5582 19.2428 45.1529 18.1761C44.7476 17.1095 44.5449 15.9148 44.5449 14.5921ZM61.9954 19.4241L70.6034 9.72814H62.6354V6.30414H76.5874V9.72814L67.9794 19.4241H77.1954V22.8481H61.9954V19.4241ZM85.7994 0.000143051H92.8714L98.2154 15.7121H98.2794L103.335 0.000143051H110.407V22.8481H105.703V6.65614H105.639L100.039 22.8481H96.1674L90.5674 6.81614H90.5034V22.8481H85.7994V0.000143051ZM123.887 12.8001C123.673 11.6481 123.289 10.7735 122.735 10.1761C122.201 9.57881 121.38 9.28014 120.271 9.28014C119.545 9.28014 118.937 9.40814 118.447 9.66414C117.977 9.89881 117.593 10.1975 117.295 10.5601C117.017 10.9228 116.815 11.3068 116.687 11.7121C116.58 12.1175 116.516 12.4801 116.495 12.8001H123.887ZM116.495 15.6801C116.559 17.1521 116.932 18.2188 117.615 18.8801C118.297 19.5415 119.279 19.8721 120.559 19.8721C121.476 19.8721 122.265 19.6481 122.927 19.2001C123.588 18.7308 123.993 18.2401 124.143 17.7281H128.143C127.503 19.7121 126.521 21.1308 125.199 21.9841C123.876 22.8375 122.276 23.2641 120.399 23.2641C119.097 23.2641 117.924 23.0615 116.879 22.6561C115.833 22.2295 114.948 21.6321 114.223 20.8641C113.497 20.0961 112.932 19.1788 112.527 18.1121C112.143 17.0455 111.951 15.8721 111.951 14.5921C111.951 13.3548 112.153 12.2028 112.559 11.1361C112.964 10.0695 113.54 9.15214 114.287 8.38414C115.033 7.59481 115.919 6.97614 116.943 6.52814C117.988 6.08014 119.14 5.85614 120.399 5.85614C121.807 5.85614 123.033 6.13348 124.079 6.68814C125.124 7.22148 125.977 7.94681 126.639 8.86414C127.321 9.78148 127.812 10.8268 128.111 12.0001C128.409 13.1735 128.516 14.4001 128.431 15.6801H116.495ZM141.27 14.5281C141.27 13.8455 141.206 13.1948 141.078 12.5761C140.95 11.9361 140.726 11.3815 140.406 10.9121C140.107 10.4215 139.712 10.0268 139.222 9.72814C138.731 9.42948 138.112 9.28014 137.366 9.28014C136.619 9.28014 135.99 9.42948 135.478 9.72814C134.966 10.0268 134.55 10.4215 134.23 10.9121C133.931 11.4028 133.707 11.9681 133.558 12.6081C133.43 13.2268 133.366 13.8775 133.366 14.5601C133.366 15.2001 133.44 15.8401 133.59 16.4801C133.739 17.1201 133.974 17.6961 134.294 18.2081C134.635 18.6988 135.051 19.1041 135.542 19.4241C136.054 19.7228 136.662 19.8721 137.366 19.8721C138.112 19.8721 138.731 19.7228 139.222 19.4241C139.734 19.1255 140.139 18.7308 140.438 18.2401C140.736 17.7281 140.95 17.1521 141.078 16.5121C141.206 15.8721 141.27 15.2108 141.27 14.5281ZM141.334 20.7361H141.27C140.736 21.6321 140.032 22.2828 139.158 22.6881C138.304 23.0721 137.334 23.2641 136.246 23.2641C135.008 23.2641 133.92 23.0295 132.982 22.5601C132.043 22.0695 131.264 21.4188 130.646 20.6081C130.048 19.7761 129.59 18.8268 129.27 17.7601C128.971 16.6935 128.822 15.5841 128.822 14.4321C128.822 13.3228 128.971 12.2561 129.27 11.2321C129.59 10.1868 130.048 9.26948 130.646 8.48014C131.264 7.69081 132.032 7.06148 132.95 6.59214C133.867 6.10148 134.934 5.85614 136.15 5.85614C137.131 5.85614 138.059 6.06948 138.934 6.49614C139.83 6.90148 140.534 7.50948 141.046 8.32014H141.11V0.000143051H145.654V22.8481H141.334V20.7361ZM152.16 3.74414H147.616V0.000143051H152.16V3.74414ZM147.616 6.30414H152.16V22.8481H147.616V6.30414ZM153.946 11.3921C154.01 10.3255 154.277 9.44014 154.746 8.73614C155.215 8.03214 155.813 7.46681 156.538 7.04014C157.263 6.61348 158.074 6.31481 158.97 6.14414C159.887 5.95214 160.805 5.85614 161.722 5.85614C162.554 5.85614 163.397 5.92014 164.25 6.04814C165.103 6.15481 165.882 6.37881 166.586 6.72014C167.29 7.06148 167.866 7.54148 168.314 8.16014C168.762 8.75748 168.986 9.55748 168.986 10.5601V19.1681C168.986 19.9148 169.029 20.6295 169.114 21.3121C169.199 21.9948 169.349 22.5068 169.562 22.8481H164.954C164.869 22.5921 164.794 22.3361 164.73 22.0801C164.687 21.8028 164.655 21.5255 164.634 21.2481C163.909 21.9948 163.055 22.5175 162.074 22.8161C161.093 23.1148 160.09 23.2641 159.066 23.2641C158.277 23.2641 157.541 23.1681 156.858 22.9761C156.175 22.7841 155.578 22.4855 155.066 22.0801C154.554 21.6748 154.149 21.1628 153.85 20.5441C153.573 19.9255 153.434 19.1895 153.434 18.3361C153.434 17.3975 153.594 16.6295 153.914 16.0321C154.255 15.4135 154.682 14.9228 155.194 14.5601C155.727 14.1975 156.325 13.9308 156.986 13.7601C157.669 13.5681 158.351 13.4188 159.034 13.3121C159.717 13.2055 160.389 13.1201 161.05 13.0561C161.711 12.9921 162.298 12.8961 162.81 12.7681C163.322 12.6401 163.727 12.4588 164.026 12.2241C164.325 11.9681 164.463 11.6055 164.442 11.1361C164.442 10.6455 164.357 10.2615 164.186 9.98414C164.037 9.68548 163.823 9.46148 163.546 9.31214C163.29 9.14148 162.981 9.03481 162.618 8.99214C162.277 8.92814 161.903 8.89614 161.498 8.89614C160.602 8.89614 159.898 9.08814 159.386 9.47214C158.874 9.85614 158.575 10.4961 158.49 11.3921H153.946ZM164.442 14.7521C164.25 14.9228 164.005 15.0615 163.706 15.1681C163.429 15.2535 163.119 15.3281 162.778 15.3921C162.458 15.4561 162.117 15.5095 161.754 15.5521C161.391 15.5948 161.029 15.6481 160.666 15.7121C160.325 15.7761 159.983 15.8615 159.642 15.9681C159.322 16.0748 159.034 16.2241 158.778 16.4161C158.543 16.5868 158.351 16.8108 158.202 17.0881C158.053 17.3655 157.978 17.7175 157.978 18.1441C157.978 18.5495 158.053 18.8908 158.202 19.1681C158.351 19.4455 158.554 19.6695 158.81 19.8401C159.066 19.9895 159.365 20.0961 159.706 20.1601C160.047 20.2241 160.399 20.2561 160.762 20.2561C161.658 20.2561 162.351 20.1068 162.842 19.8081C163.333 19.5095 163.695 19.1575 163.93 18.7521C164.165 18.3255 164.303 17.8988 164.346 17.4721C164.41 17.0455 164.442 16.7041 164.442 16.4481V14.7521Z" fill="url(#paint0_linear_1786_3842)"/>
<defs>
<linearGradient id="paint0_linear_1786_3842" x1="0.160156" y1="10.3481" x2="171.16" y2="10.3481" gradientUnits="userSpaceOnUse">
<stop stop-color="#D42981"/>
<stop offset="1" stop-color="#9633E3"/>
</linearGradient>
</defs>
</svg>
